<svg xmlns="http://www.w3.org/2000/svg" xmlns:xlink="http://www.w3.org/1999/xlink" width="500" zoomAndPan="magnify" viewBox="0 0 375 374.999991" height="500" preserveAspectRatio="xMidYMid meet" version="1.0"><defs><g/></defs><g fill="#000000" fill-opacity="1"><g transform="translate(141.660325, 214.554238)"><g><path d="M 3.332031 -17.917969 C 4.441406 -18.238281 5.550781 -18.710938 6.660156 -19.503906 C 10.308594 -22.042969 13.796875 -24.738281 17.601562 -27.433594 C 23.46875 -31.398438 39.328125 -42.660156 39.960938 -43.292969 C 42.339844 -45.039062 43.925781 -48.683594 41.546875 -49.953125 C 40.914062 -50.429688 39.167969 -49.160156 38.058594 -48.527344 L 37.902344 -48.367188 C 27.910156 -42.183594 17.761719 -35.679688 8.246094 -28.863281 C 7.613281 -28.386719 6.820312 -27.910156 6.027344 -28.226562 C 5.867188 -28.226562 5.707031 -28.386719 5.707031 -28.542969 C 5.707031 -28.703125 5.707031 -28.863281 5.867188 -29.019531 C 9.355469 -36 11.894531 -43.609375 16.175781 -50.113281 C 17.761719 -52.492188 19.03125 -55.027344 20.457031 -57.40625 C 22.042969 -60.101562 23.628906 -62.796875 25.375 -65.335938 C 26.800781 -67.398438 28.386719 -69.140625 30.128906 -71.042969 C 31.714844 -72.789062 32.828125 -74.851562 35.363281 -75.644531 C 36.472656 -75.960938 37.425781 -75.960938 38.535156 -75.960938 C 41.867188 -76.121094 45.195312 -75.960938 48.527344 -75.644531 C 49 -75.644531 49.476562 -75.484375 49.953125 -75.644531 C 50.746094 -75.960938 51.222656 -76.59375 51.699219 -77.386719 L 52.492188 -78.816406 L 52.964844 -79.609375 C 53.125 -79.765625 53.125 -79.925781 53.125 -80.082031 C 53.125 -80.402344 52.964844 -80.558594 52.808594 -80.71875 C 50.429688 -82.78125 47.097656 -83.253906 43.925781 -83.253906 C 43.132812 -83.253906 42.339844 -83.253906 41.546875 -83.414062 C 37.265625 -84.839844 41.230469 -88.488281 42.660156 -90.390625 C 43.769531 -92.136719 44.246094 -93.878906 42.976562 -95.625 C 41.867188 -96.734375 39.960938 -98.320312 38.375 -97.371094 C 37.425781 -96.734375 36.792969 -95.785156 36.316406 -94.671875 C 34.886719 -92.136719 34.886719 -92.136719 31.875 -87.21875 C 31.242188 -86.109375 30.449219 -85 29.335938 -84.046875 C 27.277344 -82.460938 24.261719 -81.035156 21.566406 -80.558594 C 18.871094 -80.242188 16.175781 -79.765625 13.320312 -79.449219 C 10.941406 -79.132812 9.671875 -75.007812 11.894531 -74.214844 C 13.320312 -73.742188 16.332031 -74.535156 17.917969 -74.535156 C 19.347656 -74.691406 20.296875 -75.328125 21.726562 -75.484375 C 22.203125 -75.644531 22.996094 -75.328125 23.152344 -74.691406 C 23.152344 -74.375 23.152344 -74.058594 22.996094 -73.742188 C 22.042969 -71.042969 16.175781 -63.433594 15.222656 -61.847656 C 12.210938 -57.25 9.199219 -52.648438 6.34375 -47.890625 C 1.902344 -40.597656 -2.539062 -32.984375 -4.597656 -24.738281 C -4.757812 -24.105469 -4.757812 -23.628906 -4.757812 -23.152344 C -4.597656 -22.675781 -4.441406 -22.203125 -4.125 -21.726562 C -2.539062 -19.503906 0.476562 -17.125 3.332031 -17.917969 Z M 3.332031 -17.917969 "/></g></g></g><g fill="#000000" fill-opacity="1"><g transform="translate(173.218112, 214.554238)"><g><path d="M 0 -10.148438 C 6.5 -8.246094 15.066406 -13.320312 19.03125 -18.394531 C 22.359375 -22.359375 22.835938 -28.703125 26.484375 -32.191406 C 29.65625 -35.046875 34.570312 -37.265625 38.058594 -39.644531 C 39.960938 -41.074219 48.683594 -47.257812 44.085938 -49.953125 C 43.292969 -50.585938 40.753906 -48.84375 40.121094 -48.207031 C 38.695312 -46.941406 37.425781 -45.671875 35.679688 -44.402344 C 32.191406 -42.023438 28.386719 -39.960938 24.421875 -38.058594 C 23.789062 -37.742188 22.996094 -37.425781 22.203125 -37.425781 C 20.773438 -37.582031 19.824219 -39.328125 19.1875 -40.597656 C 17.917969 -42.976562 15.542969 -45.511719 15.382812 -48.367188 C 15.066406 -53.125 20.296875 -54.871094 23.789062 -56.457031 C 25.214844 -57.089844 26.324219 -57.25 27.910156 -57.40625 L 28.542969 -57.40625 C 28.703125 -57.25 28.863281 -56.929688 28.863281 -56.773438 C 29.179688 -55.027344 28.863281 -53.285156 28.070312 -51.855469 C 27.75 -51.378906 27.59375 -50.585938 28.070312 -50.429688 C 29.972656 -49.320312 33.144531 -50.269531 34.09375 -52.171875 C 35.207031 -54.394531 36.472656 -58.199219 34.886719 -60.417969 C 34.09375 -61.6875 32.507812 -62.480469 31.082031 -62.640625 C 29.496094 -62.796875 28.070312 -62.480469 26.484375 -62.164062 C 20.933594 -60.738281 15.222656 -57.882812 10.941406 -54.078125 C 6.183594 -49.792969 7.613281 -44.402344 11.101562 -39.804688 C 11.894531 -38.851562 12.6875 -37.742188 13.480469 -36.632812 C 14.90625 -34.570312 15.066406 -34.886719 12.6875 -33.621094 C 9.515625 -31.875 5.867188 -30.605469 2.695312 -28.703125 C 0.160156 -27.277344 -2.539062 -25.53125 -4.125 -22.996094 C -6.660156 -18.710938 -5.234375 -11.734375 0 -10.148438 Z M 7.453125 -16.492188 C 3.011719 -13.164062 -1.269531 -18.871094 2.855469 -21.566406 C 5.074219 -22.996094 7.453125 -24.421875 9.832031 -25.53125 C 10.785156 -26.167969 17.285156 -29.8125 18.238281 -28.542969 C 19.1875 -27.433594 15.859375 -23.46875 15.222656 -22.675781 C 14.273438 -21.726562 13.320312 -20.773438 12.84375 -20.617188 Z M 7.453125 -16.492188 "/></g></g></g><g fill="#000000" fill-opacity="1"><g transform="translate(207.154646, 214.554238)"><g><path d="M 7.769531 -18.554688 C 9.671875 -20.140625 10.625 -21.726562 10.148438 -24.421875 C 8.5625 -29.019531 0.476562 -31.875 0 -25.375 C 0 -23.628906 0.476562 -21.726562 1.746094 -20.617188 C 4.125 -18.238281 6.027344 -17.125 7.769531 -18.554688 Z M 7.769531 -18.554688 "/></g></g></g></svg>