<svg width="84.24" height="57.92" viewBox="0 0 84.24 57.92" xmlns="http://www.w3.org/2000/svg"><g id="svgGroup" stroke-linecap="round" fill-rule="evenodd" font-size="9pt" stroke="#ffffff" stroke-width="0.25mm" fill="#ffffff" style="stroke:#ffffff;stroke-width:0.25mm;fill:#ffffff"><path d="M 45.2 52.24 L 49.04 45.84 Q 51.92 48.24 55.52 49.76 A 18.679 18.679 0 0 0 59.816 50.968 A 25.694 25.694 0 0 0 63.92 51.28 A 22.385 22.385 0 0 0 67.558 51.003 Q 69.496 50.683 71.065 49.995 A 10.96 10.96 0 0 0 73.04 48.88 A 8.224 8.224 0 0 0 75.277 46.556 Q 76.33 44.871 76.396 42.693 A 9.693 9.693 0 0 0 76.4 42.4 A 9.552 9.552 0 0 0 76.13 40.086 A 7.853 7.853 0 0 0 75.44 38.28 A 6.478 6.478 0 0 0 74.48 36.955 Q 73.456 35.842 71.72 34.76 A 25.684 25.684 0 0 0 69.741 33.658 Q 67.285 32.415 63.6 31.04 Q 57.84 28.8 54.4 26.52 Q 51.215 24.409 49.71 21.75 A 10.642 10.642 0 0 1 49.48 21.32 A 13.333 13.333 0 0 1 48.263 17.583 A 18.342 18.342 0 0 1 48 14.4 Q 48 10.4 50.2 7.16 Q 52.4 3.92 56.68 1.96 Q 60.558 0.184 65.914 0.017 A 36.182 36.182 0 0 1 67.04 0 Q 72 0 75.96 1 Q 79.92 2 83.68 3.84 L 80.88 10.32 A 25.197 25.197 0 0 0 77.579 8.705 A 33.349 33.349 0 0 0 74.52 7.64 Q 70.88 6.56 66.88 6.56 A 21.75 21.75 0 0 0 63.656 6.784 Q 61.95 7.04 60.56 7.589 A 10.093 10.093 0 0 0 58.56 8.64 A 7.921 7.921 0 0 0 56.829 10.212 A 5.887 5.887 0 0 0 55.52 14 A 8.372 8.372 0 0 0 55.754 16.018 A 6.849 6.849 0 0 0 56.4 17.68 A 5.529 5.529 0 0 0 57.255 18.82 Q 58.154 19.763 59.673 20.677 A 18.802 18.802 0 0 0 59.88 20.8 A 26.402 26.402 0 0 0 61.653 21.738 Q 63.468 22.62 66.037 23.618 A 104.013 104.013 0 0 0 67.68 24.24 A 64.983 64.983 0 0 1 71.663 25.864 Q 73.609 26.738 75.21 27.644 A 28.403 28.403 0 0 1 77.56 29.12 Q 80.542 31.218 82.102 33.611 A 11.384 11.384 0 0 1 82.72 34.68 A 14.063 14.063 0 0 1 84.113 39.37 A 17.724 17.724 0 0 1 84.24 41.52 A 17.368 17.368 0 0 1 83.706 45.921 A 13.684 13.684 0 0 1 81.64 50.4 Q 79.04 54.08 74.44 56 Q 69.84 57.92 63.92 57.92 A 37.893 37.893 0 0 1 57.7 57.43 A 30.439 30.439 0 0 1 53.28 56.36 A 30.565 30.565 0 0 1 48.987 54.614 A 22.746 22.746 0 0 1 45.2 52.24 Z M 24.8 56.96 L 17.2 56.96 L 17.2 7.68 L 0 7.68 L 0 0.96 L 42 0.96 L 42 7.68 L 24.8 7.68 L 24.8 56.96 Z" vector-effect="non-scaling-stroke"/></g></svg>
